<svg xmlns="http://www.w3.org/2000/svg" width="152" height="35" viewBox="0 0 152 35">
  <metadata><?xpacket begin="﻿" id="W5M0MpCehiHzreSzNTczkc9d"?>
<x:xmpmeta xmlns:x="adobe:ns:meta/" x:xmptk="Adobe XMP Core 5.6-c138 79.159824, 2016/09/14-01:09:01        ">
   <rdf:RDF xmlns:rdf="http://www.w3.org/1999/02/22-rdf-syntax-ns#">
      <rdf:Description rdf:about=""/>
   </rdf:RDF>
</x:xmpmeta>
                                                                                                    
                                                                                                    
                                                                                                    
                                                                                                    
                                                                                                    
                                                                                                    
                                                                                                    
                                                                                                    
                                                                                                    
                                                                                                    
                                                                                                    
                                                                                                    
                                                                                                    
                                                                                                    
                                                                                                    
                                                                                                    
                                                                                                    
                                                                                                    
                                                                                                    
                                                                                                    
                           
<?xpacket end="w"?></metadata>
<defs>
    <style>
      .cls-1 {
        fill: #fa695a;
        fill-rule: evenodd;
      }
    </style>
  </defs>
  <path id="用友建筑" class="cls-1" d="M87.47,314.027c1.455-.047,3.091-0.025,4.544-0.014a1.076,1.076,0,0,1,.781.652,13.961,13.961,0,0,1-.22,2.293c7.577,0,14.972,0,22.55,0a0.889,0.889,0,0,1,1.014.663c0.036,1.048.036,2.649,0,3.7a0.888,0.888,0,0,1-.854.658q-11.567.012-23.131,0c-0.239-.058-0.339.315-0.248,0.48-0.17.926-.208,2.6-0.39,3.523,6.513,0.012,13.028,0,19.544.008a2.952,2.952,0,0,1,1.933,1.09,1.787,1.787,0,0,1,.3.98c0.171,1.714-.471,2.835-1.125,4.373a33.412,33.412,0,0,1-2.215,3.606c-0.721.843-1.382,1.755-2.112,2.6a2.058,2.058,0,0,0-.416.464,9.833,9.833,0,0,0-1.137,1.226,35.808,35.808,0,0,0,3.846,2.534,7.062,7.062,0,0,0,2.685.765,14.717,14.717,0,0,0,2.31.156,0.731,0.731,0,0,1,.478.557c-0.009,1.08.034,1.862-.026,2.94a0.953,0.953,0,0,1-.636.715c-1.186.05-2.375,0.024-3.565,0.02a13.2,13.2,0,0,1-3.891-1.05c-0.22-.181-0.531.2-0.75,0.021a29.922,29.922,0,0,1-4.536-2.97,15.5,15.5,0,0,0-1.481,1.07,23.021,23.021,0,0,1-3.826,2.021c-1.43.811-3.146,0.741-4.736,0.757a5.318,5.318,0,0,1-1.564-.118,0.665,0.665,0,0,1-.27-0.683c0.007-1.056-.034-1.8.025-2.86a0.957,0.957,0,0,1,.476-0.478c0.913-.321,1.949.135,2.849-0.255a8.293,8.293,0,0,0,2.776-1.463,15.717,15.717,0,0,0,1.837-1.359c0-.029,0-0.1,0-0.125-0.578-.574-1.112-1.18-1.668-1.769a44.865,44.865,0,0,1-2.857-3.848c-0.409-.566-0.715-1.189-1.1-1.771a0.477,0.477,0,0,1,.154-0.747c1.849-.056,3.7-0.02,5.555-0.024,0.751,0.265,1.021,1.114,1.533,1.658s0.882,1.189,1.415,1.7c0.268,0.369.647,0.638,0.9,1.022a8.014,8.014,0,0,0,.946-0.942c0.468-.628.994-1.2,1.428-1.845a10.437,10.437,0,0,0,1.783-3.009c0.2-.36-0.1-1.136-0.582-0.943-5,0-9.992-.014-14.987.008-0.249.677-.214,1.533-0.445,2.214-0.007.588-.29,1.12-0.328,1.7-0.282.851-.325,1.765-0.631,2.612-0.021.456-.287,0.861-0.3,1.323-0.325.9-.51,1.837-0.814,2.748a29.565,29.565,0,0,1-2.925,6.585,1.941,1.941,0,0,1-1.59.721c-1.267-.012-2.542.042-3.8-0.024a0.659,0.659,0,0,1-.663-0.771,1.081,1.081,0,0,1,.253-0.87,21.329,21.329,0,0,0,1.794-3.38,47,47,0,0,0,2.164-6.689,5.676,5.676,0,0,0,.261-1.111c0.515-1.887.845-3.824,1.2-5.747,0.187-.595.117-1.235,0.325-1.827,0.261-1.757.51-3.755,0.711-5.516-1.941-.016-3.882.012-5.818-0.008a1.02,1.02,0,0,1-.6-0.769c-0.1-.963-0.036-2.484-0.044-3.444a1.675,1.675,0,0,1,.581-0.779c2.111-.058,4.471,0,6.584-0.03a18.822,18.822,0,0,0,.175-1.992A1.078,1.078,0,0,1,87.47,314.027Zm-43.784,1a17.931,17.931,0,0,1,1.968-.042H72.372a14.3,14.3,0,0,1,2.191.082,1.782,1.782,0,0,1,1.3,1.088,8.753,8.753,0,0,1,.134,2.1c0,9.047,0,18.768,0,27.812a2.179,2.179,0,0,1-.358,1.317,1.864,1.864,0,0,1-1.133.55c-2.13.113-4.149,0.012-6.283,0.051a2.479,2.479,0,0,1-1.8-.358,1.35,1.35,0,0,1-.191-0.763c0-.875-0.027-1.572.006-2.445a1.205,1.205,0,0,1,.251-0.544c1.108-.522,2.388-0.143,3.565-0.263,0.006-1.648.007-2.989,0-4.637q-4.066-.006-8.13,0c-0.012,2.259,0,3.907,0,6.172a0.9,0.9,0,0,1-.69.827c-1.33.11-2.677,0.014-4.014,0.048a2.025,2.025,0,0,1-1.086-.191,0.886,0.886,0,0,1-.267-0.767c-0.011-2.26,0-3.909-.006-6.169-2.764,0-5.524-.014-8.285,0-0.151.944-.125,1.605-0.355,2.539-0.018.787-.27,1.543-0.308,2.332-0.2.541-.164,1.137-0.389,1.675a8.847,8.847,0,0,1-.575,1.644,1.513,1.513,0,0,1-1.489.89c-1.2.008-2.392,0-3.589,0.006a1.447,1.447,0,0,1-.695-0.187,1.259,1.259,0,0,1-.18-0.851,39.9,39.9,0,0,0,1.552-7.509c0.231-.962.148-1.954,0.288-2.925a46.329,46.329,0,0,0,.151-5.35c0-4.68-.007-10.221,0-14.9a1.728,1.728,0,0,1,.841-1A1.576,1.576,0,0,1,43.686,315.026Zm4.951,5.047a0.78,0.78,0,0,0-.667.842c0,1.2,0,2.826,0,4.021,2.711,0.008,5.177,0,7.885,0,0.006-1.486.006-3.4,0-4.887C53.37,320.053,51.121,320,48.636,320.073Zm13.293-.03c-0.008,1.488-.008,3.4,0,4.893,2.709,0.008,5.42,0,8.13,0,0.007-1.116.006-2.664,0-3.777a2.4,2.4,0,0,0-.178-0.857,1.886,1.886,0,0,0-.62-0.249C66.814,320.025,64.368,320.049,61.929,320.043Zm-13.954,8.9c-0.011,1.516-.006,3.457,0,4.973,2.711,0.006,5.174,0,7.885,0,0.008-1.514,0-3.457,0-4.969C53.15,328.932,50.687,328.936,47.975,328.94Zm13.954,0c-0.011,1.516-.005,3.457,0,4.971,2.737,0.01,5.474.006,8.209,0,0.01-1.514,0-3.457,0-4.969C67.4,328.932,64.663,328.936,61.929,328.94Zm63.59-13.05a0.5,0.5,0,0,1,.5.5v12.2c0,1.058.1,1.925-.564,2.6a0.41,0.41,0,0,0-.053.064l-0.158.238a0.489,0.489,0,0,0-.065.424,1.986,1.986,0,0,0,.23.447,0.421,0.421,0,0,0,.035.048,3.553,3.553,0,0,1,.57,2.13,0.524,0.524,0,0,1,0,.079v7.9a0.516,0.516,0,0,0,.034.187c0.522,1.307,2.536,1.98,5.184,2.268a0.381,0.381,0,0,0,.059,0h21.519a0.5,0.5,0,0,1,.5.5V348.4a0.5,0.5,0,0,1-.5.5H129.08a4.022,4.022,0,0,1-2.044-.731,2.559,2.559,0,0,0-1.023-.438,1.4,1.4,0,0,0-.73.292,4.214,4.214,0,0,1-2.044.877h-2.846a0.5,0.5,0,0,1-.5-0.5v-2.792a0.5,0.5,0,0,1,.5-0.5h0.227a1.416,1.416,0,0,0,1.3-1.281,0.507,0.507,0,0,0,0-.068v-8.831a0.575,0.575,0,0,0-.009-0.1,1.886,1.886,0,0,0-1.255-.949,0.473,0.473,0,0,0-.158-0.023h0a0.5,0.5,0,0,1-.5-0.5v-3.376a0.5,0.5,0,0,1,.5-0.5h0.226c0.388-.1,1.135-0.341,1.135-0.731V320.18a1.289,1.289,0,0,0-1.054-.5H120.5a0.5,0.5,0,0,1-.5-0.5v-2.778a0.5,0.5,0,0,1,.5-0.5h5.017Zm2.991,1.118h7.807c0.278,0,.5-0.042.5-0.32v-0.235a0.5,0.5,0,0,1,.5-0.5h4.688a0.5,0.5,0,0,1,.5.5v0.089a0.454,0.454,0,0,0,.5.442h8.631c0.279,0,.321.226,0.321,0.5v4.753a0.5,0.5,0,0,0,.5.5h0.943a0.5,0.5,0,0,1,.5.5v2.938a0.5,0.5,0,0,1-.5.5h-0.8a0.5,0.5,0,0,0-.5.5v1.4c0,2.63-1.276,3.492-4.2,3.393h-4.462a0.5,0.5,0,0,0-.5.5v1.006a0.5,0.5,0,0,0,.5.5h8.923a0.5,0.5,0,0,1,.5.5v2.989a0.5,0.5,0,0,1-.5.5h-8.923a0.5,0.5,0,0,0-.5.5v0.4a1.314,1.314,0,0,0,.5,1.067h8.923a0.5,0.5,0,0,1,.5.5v2.083a0.5,0.5,0,0,1-.5.5h-9.069c-0.278,0-.5-0.118-0.5.16v0.307a0.5,0.5,0,0,1-.5.5H137.47a0.5,0.5,0,0,1-.5-0.5v-0.307c0-.278-0.225-0.16-0.5-0.16H128.51a0.5,0.5,0,0,1-.5-0.5v-2.083a0.5,0.5,0,0,1,.5-0.5h7.952a1.311,1.311,0,0,0,.5-1.067v-0.4a0.5,0.5,0,0,0-.5-0.5H128.51a0.5,0.5,0,0,1-.5-0.5V334.5a0.5,0.5,0,0,1,.5-0.5h7.952a0.5,0.5,0,0,0,.5-0.5v-1.006a0.5,0.5,0,0,0-.5-0.5H128.51a0.5,0.5,0,0,1-.5-0.5v-2.99a0.5,0.5,0,0,1,.5-0.5h7.952a0.5,0.5,0,0,0,.5-0.5V326.5a0.5,0.5,0,0,0-.5-0.5H128.4a0.5,0.5,0,0,1-.5-0.5v-2.021a0.5,0.5,0,0,1,.5-0.5h8.06a0.5,0.5,0,0,0,.5-0.5v-0.975a0.5,0.5,0,0,0-.5-0.5H128.51a0.5,0.5,0,0,1-.5-0.5v-2.965A0.5,0.5,0,0,1,128.51,317.008ZM146,327.185v-0.508a0.609,0.609,0,0,0-.469-0.686h-2.056a0.609,0.609,0,0,0-.469.686V327.3a0.609,0.609,0,0,0,.469.686h1.8a0.31,0.31,0,0,1,.091.015C145.7,328.091,145.912,327.822,146,327.185Zm0.011-4.767v-0.852a0.55,0.55,0,0,0-.52-0.576h-1.975a0.55,0.55,0,0,0-.52.576v0.852a0.55,0.55,0,0,0,.52.576h1.975A0.55,0.55,0,0,0,146.01,322.418ZM162.784,331h-4.74a0.189,0.189,0,0,1-.189-0.189v-3.678a0.189,0.189,0,0,1,.189-0.189h13.723a0.189,0.189,0,0,1,.189.189v3.678a0.189,0.189,0,0,1-.189.189h-3.6a0.189,0.189,0,0,0-.188.19v13.54a0.189,0.189,0,0,0,.188.189H170.8a0.189,0.189,0,0,1,.189.189V348.8a0.189,0.189,0,0,1-.189.189H158.121a0.189,0.189,0,0,1-.189-0.189v-3.693a0.189,0.189,0,0,1,.189-0.189h4.663a0.189,0.189,0,0,0,.189-0.189v-13.54A0.189,0.189,0,0,0,162.784,331Zm-3.019-10.348,1.422-4.5a0.191,0.191,0,0,1,.181-0.134h11.45a0.189,0.189,0,0,1,.189.189v3.539a0.189,0.189,0,0,1-.189.189H170.3a0.19,0.19,0,0,0-.177.256l0.345,0.918a0.728,0.728,0,0,0,.88.587h1.571a0.19,0.19,0,0,1,.189.19v2.85a0.189,0.189,0,0,1-.189.189H168.43a0.163,0.163,0,0,0-.031,0q-1.455.284-1.891-1.617l-0.865-2.72a0.189,0.189,0,0,0-.356-0.012l-1.126,2.879a2.091,2.091,0,0,1-2.346,1.614h-3.624a0.19,0.19,0,0,1-.19-0.189v-3a0.19,0.19,0,0,1,.19-0.19h0.4a0.963,0.963,0,0,0,1.172-1.014A0.221,0.221,0,0,1,159.765,320.653ZM172.944,348.8v-3.584a0.19,0.19,0,0,1,.189-0.19h0.4c0.488,0.1.464-.195,0.464-0.88V327.141a0.189,0.189,0,0,1,.189-0.189h15.622a0.189,0.189,0,0,1,.189.189V344q-0.149,1.029.733,0.881h1.083a0.189,0.189,0,0,1,.189.189v3.7a0.189,0.189,0,0,1-.189.189h-5.064c-1.367.1-1.954-.7-1.761-2.16,0-.007,0-0.014,0-0.021v-0.635a0.19,0.19,0,0,0-.189-0.19h-2.6c-1.66,0-2.441-1.018-2.347-2.676a0.081,0.081,0,0,0,0-.022l-0.717-9.094a0.189,0.189,0,0,1,.189-0.2h3.147a0.189,0.189,0,0,1,.188.168l0.858,7.209a0.2,0.2,0,0,1,0,.049c-0.088.569,0.107,0.806,0.591,0.709H184.8a0.189,0.189,0,0,0,.189-0.189V331.275a0.189,0.189,0,0,0-.189-0.189h-6.659a0.188,0.188,0,0,0-.189.189v14.487c0.1,2.345-.1,3.421-2.049,3.23h-2.768A0.189,0.189,0,0,1,172.944,348.8Zm1.484-27.214a0.189,0.189,0,0,1,.188-0.189h0.691c0.388,0.1.73-.192,1.022-0.869,0-.007.006-0.016,0.009-0.024l1.422-4.389a0.189,0.189,0,0,1,.181-0.134h12.877a0.189,0.189,0,0,1,.189.189v3.577a0.188,0.188,0,0,1-.189.189H187.18a0.189,0.189,0,0,0-.173.264l0.327,1.148a0.729,0.729,0,0,0,.88.588h2.573a0.189,0.189,0,0,1,.189.189v2.605a0.189,0.189,0,0,1-.189.189H185.3a0.155,0.155,0,0,0-.031,0q-1.45.282-1.889-1.608a0.121,0.121,0,0,0,0-.018l-1.145-3.182a0.189,0.189,0,0,0-.354,0l-1.281,3.333a0.064,0.064,0,0,0-.006.018,1.641,1.641,0,0,1-2.037,1.461,0.133,0.133,0,0,0-.028,0h-3.9a0.188,0.188,0,0,1-.188-0.189v-3.144Z" transform="translate(-40 -314)"/>
</svg>
