<svg xmlns="http://www.w3.org/2000/svg" width="152" height="14" viewBox="0 0 152 14">
  <metadata><?xpacket begin="﻿" id="W5M0MpCehiHzreSzNTczkc9d"?>
<x:xmpmeta xmlns:x="adobe:ns:meta/" x:xmptk="Adobe XMP Core 5.6-c138 79.159824, 2016/09/14-01:09:01        ">
   <rdf:RDF xmlns:rdf="http://www.w3.org/1999/02/22-rdf-syntax-ns#">
      <rdf:Description rdf:about=""/>
   </rdf:RDF>
</x:xmpmeta>
                                                                                                    
                                                                                                    
                                                                                                    
                                                                                                    
                                                                                                    
                                                                                                    
                                                                                                    
                                                                                                    
                                                                                                    
                                                                                                    
                                                                                                    
                                                                                                    
                                                                                                    
                                                                                                    
                                                                                                    
                                                                                                    
                                                                                                    
                                                                                                    
                                                                                                    
                                                                                                    
                           
<?xpacket end="w"?></metadata>
<defs>
    <style>
      .cls-1 {
        fill: #333;
        fill-rule: evenodd;
      }
    </style>
  </defs>
  <path id="yonyou_Construction" data-name="yonyou Construction" class="cls-1" d="M114.482,357.092a6.268,6.268,0,0,1,3.9.631,3.076,3.076,0,0,1,1.24,4.176,3.4,3.4,0,0,1-2.012,1.717,5.958,5.958,0,0,1-3.432.217,3.549,3.549,0,0,1-3.049-2.509,3.209,3.209,0,0,1,.726-2.935A4.53,4.53,0,0,1,114.482,357.092Zm1.293,0.9c-1.545.31-2.163,1.667-2.726,2.788a9.794,9.794,0,0,0-.012,1.248,1.687,1.687,0,0,0,1.085.826,2.356,2.356,0,0,0,2.746-.921,4.118,4.118,0,0,0,.728-1,2.831,2.831,0,0,0,.346-1.778A2.041,2.041,0,0,0,115.775,357.994Zm8.421-.926a5.619,5.619,0,0,1,3.972.733,2.315,2.315,0,0,1,.831,1.747c0.007,1.481,0,2.96,0,4.443-0.855,0-1.131.011-1.986,0a1.262,1.262,0,0,1-.094-0.6c-0.019-1.4.019-2.794-.009-4.182a0.939,0.939,0,0,0-.9-0.642,4.846,4.846,0,0,0-2.017.133c-0.031,1.762,0,3.528-.018,5.294-0.884,0-2.078.008-2.966,0,0-1.74-.007-3.48,0-5.223a1.033,1.033,0,0,1,.694-1.174,4.367,4.367,0,0,0,1-.263C123.2,357.29,123.7,357.138,124.2,357.068Zm17.284-.007a6.218,6.218,0,0,1,4.135.777,3.1,3.1,0,0,1,1.366,3.078,3.4,3.4,0,0,1-1.7,2.381,5.536,5.536,0,0,1-2.151.664,8.172,8.172,0,0,1-2.573-.227,5.031,5.031,0,0,1-1.79-1.1,3.138,3.138,0,0,1-.553-3.261,2.421,2.421,0,0,1,.589-0.957A4.2,4.2,0,0,1,141.48,357.061Zm1.272,0.953c-1.542.38-2.237,1.794-2.737,2.985a1.515,1.515,0,0,0,.262,1.29,1.928,1.928,0,0,0,1.426.725,2.793,2.793,0,0,0,2.662-1.6,3.267,3.267,0,0,0,.587-2.539A2.653,2.653,0,0,0,142.752,358.014ZM102,357c0.751-.008,1.5-0.023,2.255,0a1.1,1.1,0,0,1,.554.52c0.432,0.87.822,1.763,1.261,2.633,0.106,0.223.186,0.507,0.5,0.383a12.66,12.66,0,0,0,1.083-2.07,4.213,4.213,0,0,1,.9-1.421,14.831,14.831,0,0,1,2.338-.035l0.093,0.076c-0.676,1.3-1.341,2.609-2.033,3.9-0.342.676-.654,1.369-1.058,2.012-0.608,1.359-1.4,2.619-2,3.976-0.734.01-1.468,0.043-2.2,0a1.1,1.1,0,0,1-.272-0.312c0.4-.672.716-1.391,1.074-2.082a0.9,0.9,0,0,0,.22-0.441,0.79,0.79,0,0,0,.219-0.873c-0.4-.773-0.759-1.579-1.111-2.371C103.162,359.625,102.66,358.272,102,357Zm26.991-.008c0.747,0.008,1.5-.015,2.247.008a1.1,1.1,0,0,1,.626.709c0.46,0.866.859,1.741,1.246,2.642,0.172,0.177.477,0.3,0.6,0.006,0.443-1.046,1.046-2.006,1.539-3.027A0.651,0.651,0,0,1,136,357c0.671,0,1.344-.019,2.013,0-1,2.05-2.127,4.027-3.133,6.077a22.5,22.5,0,0,0-1.09,2.146c-0.336.578-.624,1.182-0.976,1.755-0.711.012-1.425,0.031-2.135-.006a0.964,0.964,0,0,1-.263-0.312c0.413-.8.838-1.6,1.238-2.412a2.265,2.265,0,0,0,.336-0.654,1.1,1.1,0,0,0-.16-0.486C130.879,361.07,129.912,359.05,128.992,356.994Zm19.019,0.036c0.827-.007,1.653-0.013,2.483,0a0.8,0.8,0,0,1,.177.683c0.018,1.351-.015,2.7.009,4.054a0.835,0.835,0,0,0,.8.651,3.712,3.712,0,0,0,1.854-.054c0.022-1.58,0-3.16.011-4.737-0.2-.319.044-0.425,0.184-0.589,0.825-.032,1.649-0.017,2.476-0.012,0.01,1.87,0,3.743.006,5.61a0.878,0.878,0,0,1-.89.827,11.576,11.576,0,0,1-4.695.459,3.251,3.251,0,0,1-2.3-1.745A47.83,47.83,0,0,1,148.011,357.03Zm22-.335H167.57a1.962,1.962,0,0,0-2.095-2.016q-1.92.115-2.037,3.916,0.115,3.8,2.037,3.859a1.921,1.921,0,0,0,2.095-2.016h2.444q-0.233,3.513-4.539,3.571-4.365-.117-4.481-5.414,0.115-5.412,4.481-5.586Q169.782,353.125,170.014,356.7Zm26.6,2.3h-2.13a0.886,0.886,0,0,0-1.035-.678q-0.974,0-.913.626,0,0.418,1.461.783,2.981,0.68,2.982,2.193-0.245,1.932-3.53,2.088-3.346-.1-3.469-2.036h2.191a1.064,1.064,0,0,0,1.278.783,0.887,0.887,0,0,0,1.1-.731q-0.062-.573-1.583-0.835-2.982-.417-2.86-2.193t3.347-1.983Q196.436,357.066,196.619,359Zm0.394-1.94h1.4v-1.327l1.872-.743,0.225,2.07h1.5v1.38h-1.5v3.184q-0.162,1.274.806,1.114a1.592,1.592,0,0,0,.7-0.053V363.9q-0.861.053-1.666,0.106-2.044.053-1.936-2.229v-3.343h-1.4v-1.38Zm5.978,0h2.193v1.291h0.063q0.625-1.4,2.757-1.344v1.828h-1.065a2.259,2.259,0,0,0-1.191.484,2.22,2.22,0,0,0-.313,1.022v3.657h-2.381v-5.539a3,3,0,0,0-.063-0.431A3.633,3.633,0,0,1,202.991,357.053Zm22,2.518h-2.313a1.254,1.254,0,0,0-1.217-1.253q-0.912,0-1.034,1.931v0.47q0.06,2.088,1.095,2.036a1.127,1.127,0,0,0,1.156-1.305H225q-0.245,2.505-3.469,2.558A3.293,3.293,0,0,1,218,360.562a3.414,3.414,0,0,1,3.529-3.549Q224.813,357.169,225,359.571Zm1-2.515h1.4v-1.327l1.872-.743,0.224,2.07H231v1.38h-1.506v3.184q-0.161,1.274.807,1.114a1.592,1.592,0,0,0,.7-0.053V363.9q-0.861.053-1.667,0.106-2.043.053-1.935-2.229v-3.343H226v-1.38Zm5.984-3.045h2.725l0.278,1.78H232.26Zm0.344,3.021h2.592v6.959h-2.592v-6.959Zm-57.849.017a6.178,6.178,0,0,1,4.12.777,3.1,3.1,0,0,1,1.361,3.078,3.408,3.408,0,0,1-1.695,2.382,5.5,5.5,0,0,1-2.144.663,8.121,8.121,0,0,1-2.564-.227,4.991,4.991,0,0,1-1.783-1.1,3.147,3.147,0,0,1-.551-3.261,2.435,2.435,0,0,1,.587-0.957A4.179,4.179,0,0,1,174.478,357.049Zm1.164,1.253c-1.222.33-1.773,1.553-2.17,2.583A1.412,1.412,0,0,0,173.68,362a1.494,1.494,0,0,0,1.13.627,2.2,2.2,0,0,0,2.111-1.381,3.03,3.03,0,0,0,.466-2.2A2.019,2.019,0,0,0,175.642,358.3Zm63.833-1.251a6.178,6.178,0,0,1,4.12.777,3.1,3.1,0,0,1,1.361,3.078,3.4,3.4,0,0,1-1.695,2.382,5.519,5.519,0,0,1-2.144.663,8.141,8.141,0,0,1-2.563-.227,5,5,0,0,1-1.784-1.1,3.147,3.147,0,0,1-.551-3.261,2.428,2.428,0,0,1,.587-0.957A4.179,4.179,0,0,1,239.475,357.051Zm1.164,1.253c-1.222.329-1.773,1.553-2.169,2.583a1.4,1.4,0,0,0,.207,1.116,1.494,1.494,0,0,0,1.131.628,2.2,2.2,0,0,0,2.11-1.381,3.03,3.03,0,0,0,.466-2.2A2.018,2.018,0,0,0,240.639,358.3ZM184.2,357.049a5.6,5.6,0,0,1,3.972.737,2.324,2.324,0,0,1,.83,1.754c0.008,1.488,0,2.974,0,4.464-0.854,0-1.712.011-2.567,0a1.266,1.266,0,0,1-.094-0.6c-0.019-1.407.02-2.808-.009-4.2a0.94,0.94,0,0,0-.9-0.645,3.63,3.63,0,0,0-1.744.134c-0.03,1.77,0,3.544-.017,5.318-0.884,0-1.77.009-2.658,0,0-1.747-.007-3.5,0-5.246a1.036,1.036,0,0,1,.694-1.179,4.321,4.321,0,0,0,1-.265C183.208,357.272,183.7,357.119,184.2,357.049Zm64.993,0a5.6,5.6,0,0,1,3.972.737,2.324,2.324,0,0,1,.83,1.754c0.008,1.488,0,2.974,0,4.464-0.854,0-1.712.011-2.567,0a1.266,1.266,0,0,1-.094-0.6c-0.019-1.407.019-2.808-.009-4.2a0.94,0.94,0,0,0-.9-0.645,3.63,3.63,0,0,0-1.744.134c-0.03,1.77,0,3.544-.018,5.318-0.883,0-1.769.009-2.657,0,0-1.747-.007-3.5,0-5.246a1.036,1.036,0,0,1,.693-1.179,4.316,4.316,0,0,0,1-.265C248.2,357.272,248.693,357.119,249.193,357.049Zm-40.183-.025c0.827-.007,1.653-0.013,2.484,0a0.812,0.812,0,0,1,.177.684c0.017,1.351-.016,2.7.008,4.054a0.837,0.837,0,0,0,.8.651,3.712,3.712,0,0,0,1.854-.054c0.022-1.58,0-3.16.012-4.738-0.2-.319.043-0.424,0.184-0.588,0.824-.033,1.649-0.017,2.475-0.013,0.011,1.871,0,3.744.007,5.61a0.88,0.88,0,0,1-.89.828,11.6,11.6,0,0,1-4.7.459,3.257,3.257,0,0,1-2.3-1.746A47.825,47.825,0,0,1,209.01,357.024Z" transform="translate(-102 -353)"/>
</svg>
